<svg xmlns="http://www.w3.org/2000/svg" width="794" height="1123" viewBox="0 0 794 1123"><rect width="794" height="1123" fill="white"/><rect x="35" y="35" width="724" height="1053" fill="none" stroke="#111" stroke-width="2"/><text x="60" y="82" font-family="Arial" font-size="22" font-weight="700">PRECISION • UPSC CSE PRELIMS 2027 • GS-I</text><text x="60" y="112" font-family="Arial" font-size="12">OMR RESPONSE SHEET • PAGE 1/2 • QUESTIONS 1–50</text><text x="60" y="150" font-family="Arial" font-size="11">TEST NO: __________   PAPER CODE: __________________   DATE: __________</text><text x="400" y="205" font-family="Arial" font-size="11" font-weight="700">A       B       C       D</text><text x="95" y="253" class="q">001</text><circle cx="430" cy="250" r="6" class="bubble"/><text x="430" y="253" class="opt">A</text><circle cx="485" cy="250" r="6" class="bubble"/><text x="485" y="253" class="opt">B</text><circle cx="540" cy="250" r="6" class="bubble"/><text x="540" y="253" class="opt">C</text><circle cx="595" cy="250" r="6" class="bubble"/><text x="595" y="253" class="opt">D</text><text x="95" y="268" class="q">002</text><circle cx="430" cy="265" r="6" class="bubble"/><text x="430" y="268" class="opt">A</text><circle cx="485" cy="265" r="6" class="bubble"/><text x="485" y="268" class="opt">B</text><circle cx="540" cy="265" r="6" class="bubble"/><text x="540" y="268" class="opt">C</text><circle cx="595" cy="265" r="6" class="bubble"/><text x="595" y="268" class="opt">D</text><text x="95" y="283" class="q">003</text><circle cx="430" cy="280" r="6" class="bubble"/><text x="430" y="283" class="opt">A</text><circle cx="485" cy="280" r="6" class="bubble"/><text x="485" y="283" class="opt">B</text><circle cx="540" cy="280" r="6" class="bubble"/><text x="540" y="283" class="opt">C</text><circle cx="595" cy="280" r="6" class="bubble"/><text x="595" y="283" class="opt">D</text><text x="95" y="298" class="q">004</text><circle cx="430" cy="295" r="6" class="bubble"/><text x="430" y="298" class="opt">A</text><circle cx="485" cy="295" r="6" class="bubble"/><text x="485" y="298" class="opt">B</text><circle cx="540" cy="295" r="6" class="bubble"/><text x="540" y="298" class="opt">C</text><circle cx="595" cy="295" r="6" class="bubble"/><text x="595" y="298" class="opt">D</text><text x="95" y="313" class="q">005</text><circle cx="430" cy="310" r="6" class="bubble"/><text x="430" y="313" class="opt">A</text><circle cx="485" cy="310" r="6" class="bubble"/><text x="485" y="313" class="opt">B</text><circle cx="540" cy="310" r="6" class="bubble"/><text x="540" y="313" class="opt">C</text><circle cx="595" cy="310" r="6" class="bubble"/><text x="595" y="313" class="opt">D</text><text x="95" y="328" class="q">006</text><circle cx="430" cy="325" r="6" class="bubble"/><text x="430" y="328" class="opt">A</text><circle cx="485" cy="325" r="6" class="bubble"/><text x="485" y="328" class="opt">B</text><circle cx="540" cy="325" r="6" class="bubble"/><text x="540" y="328" class="opt">C</text><circle cx="595" cy="325" r="6" class="bubble"/><text x="595" y="328" class="opt">D</text><text x="95" y="343" class="q">007</text><circle cx="430" cy="340" r="6" class="bubble"/><text x="430" y="343" class="opt">A</text><circle cx="485" cy="340" r="6" class="bubble"/><text x="485" y="343" class="opt">B</text><circle cx="540" cy="340" r="6" class="bubble"/><text x="540" y="343" class="opt">C</text><circle cx="595" cy="340" r="6" class="bubble"/><text x="595" y="343" class="opt">D</text><text x="95" y="358" class="q">008</text><circle cx="430" cy="355" r="6" class="bubble"/><text x="430" y="358" class="opt">A</text><circle cx="485" cy="355" r="6" class="bubble"/><text x="485" y="358" class="opt">B</text><circle cx="540" cy="355" r="6" class="bubble"/><text x="540" y="358" class="opt">C</text><circle cx="595" cy="355" r="6" class="bubble"/><text x="595" y="358" class="opt">D</text><text x="95" y="373" class="q">009</text><circle cx="430" cy="370" r="6" class="bubble"/><text x="430" y="373" class="opt">A</text><circle cx="485" cy="370" r="6" class="bubble"/><text x="485" y="373" class="opt">B</text><circle cx="540" cy="370" r="6" class="bubble"/><text x="540" y="373" class="opt">C</text><circle cx="595" cy="370" r="6" class="bubble"/><text x="595" y="373" class="opt">D</text><text x="95" y="388" class="q">010</text><circle cx="430" cy="385" r="6" class="bubble"/><text x="430" y="388" class="opt">A</text><circle cx="485" cy="385" r="6" class="bubble"/><text x="485" y="388" class="opt">B</text><circle cx="540" cy="385" r="6" class="bubble"/><text x="540" y="388" class="opt">C</text><circle cx="595" cy="385" r="6" class="bubble"/><text x="595" y="388" class="opt">D</text><text x="95" y="403" class="q">011</text><circle cx="430" cy="400" r="6" class="bubble"/><text x="430" y="403" class="opt">A</text><circle cx="485" cy="400" r="6" class="bubble"/><text x="485" y="403" class="opt">B</text><circle cx="540" cy="400" r="6" class="bubble"/><text x="540" y="403" class="opt">C</text><circle cx="595" cy="400" r="6" class="bubble"/><text x="595" y="403" class="opt">D</text><text x="95" y="418" class="q">012</text><circle cx="430" cy="415" r="6" class="bubble"/><text x="430" y="418" class="opt">A</text><circle cx="485" cy="415" r="6" class="bubble"/><text x="485" y="418" class="opt">B</text><circle cx="540" cy="415" r="6" class="bubble"/><text x="540" y="418" class="opt">C</text><circle cx="595" cy="415" r="6" class="bubble"/><text x="595" y="418" class="opt">D</text><text x="95" y="433" class="q">013</text><circle cx="430" cy="430" r="6" class="bubble"/><text x="430" y="433" class="opt">A</text><circle cx="485" cy="430" r="6" class="bubble"/><text x="485" y="433" class="opt">B</text><circle cx="540" cy="430" r="6" class="bubble"/><text x="540" y="433" class="opt">C</text><circle cx="595" cy="430" r="6" class="bubble"/><text x="595" y="433" class="opt">D</text><text x="95" y="448" class="q">014</text><circle cx="430" cy="445" r="6" class="bubble"/><text x="430" y="448" class="opt">A</text><circle cx="485" cy="445" r="6" class="bubble"/><text x="485" y="448" class="opt">B</text><circle cx="540" cy="445" r="6" class="bubble"/><text x="540" y="448" class="opt">C</text><circle cx="595" cy="445" r="6" class="bubble"/><text x="595" y="448" class="opt">D</text><text x="95" y="463" class="q">015</text><circle cx="430" cy="460" r="6" class="bubble"/><text x="430" y="463" class="opt">A</text><circle cx="485" cy="460" r="6" class="bubble"/><text x="485" y="463" class="opt">B</text><circle cx="540" cy="460" r="6" class="bubble"/><text x="540" y="463" class="opt">C</text><circle cx="595" cy="460" r="6" class="bubble"/><text x="595" y="463" class="opt">D</text><text x="95" y="478" class="q">016</text><circle cx="430" cy="475" r="6" class="bubble"/><text x="430" y="478" class="opt">A</text><circle cx="485" cy="475" r="6" class="bubble"/><text x="485" y="478" class="opt">B</text><circle cx="540" cy="475" r="6" class="bubble"/><text x="540" y="478" class="opt">C</text><circle cx="595" cy="475" r="6" class="bubble"/><text x="595" y="478" class="opt">D</text><text x="95" y="493" class="q">017</text><circle cx="430" cy="490" r="6" class="bubble"/><text x="430" y="493" class="opt">A</text><circle cx="485" cy="490" r="6" class="bubble"/><text x="485" y="493" class="opt">B</text><circle cx="540" cy="490" r="6" class="bubble"/><text x="540" y="493" class="opt">C</text><circle cx="595" cy="490" r="6" class="bubble"/><text x="595" y="493" class="opt">D</text><text x="95" y="508" class="q">018</text><circle cx="430" cy="505" r="6" class="bubble"/><text x="430" y="508" class="opt">A</text><circle cx="485" cy="505" r="6" class="bubble"/><text x="485" y="508" class="opt">B</text><circle cx="540" cy="505" r="6" class="bubble"/><text x="540" y="508" class="opt">C</text><circle cx="595" cy="505" r="6" class="bubble"/><text x="595" y="508" class="opt">D</text><text x="95" y="523" class="q">019</text><circle cx="430" cy="520" r="6" class="bubble"/><text x="430" y="523" class="opt">A</text><circle cx="485" cy="520" r="6" class="bubble"/><text x="485" y="523" class="opt">B</text><circle cx="540" cy="520" r="6" class="bubble"/><text x="540" y="523" class="opt">C</text><circle cx="595" cy="520" r="6" class="bubble"/><text x="595" y="523" class="opt">D</text><text x="95" y="538" class="q">020</text><circle cx="430" cy="535" r="6" class="bubble"/><text x="430" y="538" class="opt">A</text><circle cx="485" cy="535" r="6" class="bubble"/><text x="485" y="538" class="opt">B</text><circle cx="540" cy="535" r="6" class="bubble"/><text x="540" y="538" class="opt">C</text><circle cx="595" cy="535" r="6" class="bubble"/><text x="595" y="538" class="opt">D</text><text x="95" y="553" class="q">021</text><circle cx="430" cy="550" r="6" class="bubble"/><text x="430" y="553" class="opt">A</text><circle cx="485" cy="550" r="6" class="bubble"/><text x="485" y="553" class="opt">B</text><circle cx="540" cy="550" r="6" class="bubble"/><text x="540" y="553" class="opt">C</text><circle cx="595" cy="550" r="6" class="bubble"/><text x="595" y="553" class="opt">D</text><text x="95" y="568" class="q">022</text><circle cx="430" cy="565" r="6" class="bubble"/><text x="430" y="568" class="opt">A</text><circle cx="485" cy="565" r="6" class="bubble"/><text x="485" y="568" class="opt">B</text><circle cx="540" cy="565" r="6" class="bubble"/><text x="540" y="568" class="opt">C</text><circle cx="595" cy="565" r="6" class="bubble"/><text x="595" y="568" class="opt">D</text><text x="95" y="583" class="q">023</text><circle cx="430" cy="580" r="6" class="bubble"/><text x="430" y="583" class="opt">A</text><circle cx="485" cy="580" r="6" class="bubble"/><text x="485" y="583" class="opt">B</text><circle cx="540" cy="580" r="6" class="bubble"/><text x="540" y="583" class="opt">C</text><circle cx="595" cy="580" r="6" class="bubble"/><text x="595" y="583" class="opt">D</text><text x="95" y="598" class="q">024</text><circle cx="430" cy="595" r="6" class="bubble"/><text x="430" y="598" class="opt">A</text><circle cx="485" cy="595" r="6" class="bubble"/><text x="485" y="598" class="opt">B</text><circle cx="540" cy="595" r="6" class="bubble"/><text x="540" y="598" class="opt">C</text><circle cx="595" cy="595" r="6" class="bubble"/><text x="595" y="598" class="opt">D</text><text x="95" y="613" class="q">025</text><circle cx="430" cy="610" r="6" class="bubble"/><text x="430" y="613" class="opt">A</text><circle cx="485" cy="610" r="6" class="bubble"/><text x="485" y="613" class="opt">B</text><circle cx="540" cy="610" r="6" class="bubble"/><text x="540" y="613" class="opt">C</text><circle cx="595" cy="610" r="6" class="bubble"/><text x="595" y="613" class="opt">D</text><text x="95" y="628" class="q">026</text><circle cx="430" cy="625" r="6" class="bubble"/><text x="430" y="628" class="opt">A</text><circle cx="485" cy="625" r="6" class="bubble"/><text x="485" y="628" class="opt">B</text><circle cx="540" cy="625" r="6" class="bubble"/><text x="540" y="628" class="opt">C</text><circle cx="595" cy="625" r="6" class="bubble"/><text x="595" y="628" class="opt">D</text><text x="95" y="643" class="q">027</text><circle cx="430" cy="640" r="6" class="bubble"/><text x="430" y="643" class="opt">A</text><circle cx="485" cy="640" r="6" class="bubble"/><text x="485" y="643" class="opt">B</text><circle cx="540" cy="640" r="6" class="bubble"/><text x="540" y="643" class="opt">C</text><circle cx="595" cy="640" r="6" class="bubble"/><text x="595" y="643" class="opt">D</text><text x="95" y="658" class="q">028</text><circle cx="430" cy="655" r="6" class="bubble"/><text x="430" y="658" class="opt">A</text><circle cx="485" cy="655" r="6" class="bubble"/><text x="485" y="658" class="opt">B</text><circle cx="540" cy="655" r="6" class="bubble"/><text x="540" y="658" class="opt">C</text><circle cx="595" cy="655" r="6" class="bubble"/><text x="595" y="658" class="opt">D</text><text x="95" y="673" class="q">029</text><circle cx="430" cy="670" r="6" class="bubble"/><text x="430" y="673" class="opt">A</text><circle cx="485" cy="670" r="6" class="bubble"/><text x="485" y="673" class="opt">B</text><circle cx="540" cy="670" r="6" class="bubble"/><text x="540" y="673" class="opt">C</text><circle cx="595" cy="670" r="6" class="bubble"/><text x="595" y="673" class="opt">D</text><text x="95" y="688" class="q">030</text><circle cx="430" cy="685" r="6" class="bubble"/><text x="430" y="688" class="opt">A</text><circle cx="485" cy="685" r="6" class="bubble"/><text x="485" y="688" class="opt">B</text><circle cx="540" cy="685" r="6" class="bubble"/><text x="540" y="688" class="opt">C</text><circle cx="595" cy="685" r="6" class="bubble"/><text x="595" y="688" class="opt">D</text><text x="95" y="703" class="q">031</text><circle cx="430" cy="700" r="6" class="bubble"/><text x="430" y="703" class="opt">A</text><circle cx="485" cy="700" r="6" class="bubble"/><text x="485" y="703" class="opt">B</text><circle cx="540" cy="700" r="6" class="bubble"/><text x="540" y="703" class="opt">C</text><circle cx="595" cy="700" r="6" class="bubble"/><text x="595" y="703" class="opt">D</text><text x="95" y="718" class="q">032</text><circle cx="430" cy="715" r="6" class="bubble"/><text x="430" y="718" class="opt">A</text><circle cx="485" cy="715" r="6" class="bubble"/><text x="485" y="718" class="opt">B</text><circle cx="540" cy="715" r="6" class="bubble"/><text x="540" y="718" class="opt">C</text><circle cx="595" cy="715" r="6" class="bubble"/><text x="595" y="718" class="opt">D</text><text x="95" y="733" class="q">033</text><circle cx="430" cy="730" r="6" class="bubble"/><text x="430" y="733" class="opt">A</text><circle cx="485" cy="730" r="6" class="bubble"/><text x="485" y="733" class="opt">B</text><circle cx="540" cy="730" r="6" class="bubble"/><text x="540" y="733" class="opt">C</text><circle cx="595" cy="730" r="6" class="bubble"/><text x="595" y="733" class="opt">D</text><text x="95" y="748" class="q">034</text><circle cx="430" cy="745" r="6" class="bubble"/><text x="430" y="748" class="opt">A</text><circle cx="485" cy="745" r="6" class="bubble"/><text x="485" y="748" class="opt">B</text><circle cx="540" cy="745" r="6" class="bubble"/><text x="540" y="748" class="opt">C</text><circle cx="595" cy="745" r="6" class="bubble"/><text x="595" y="748" class="opt">D</text><text x="95" y="763" class="q">035</text><circle cx="430" cy="760" r="6" class="bubble"/><text x="430" y="763" class="opt">A</text><circle cx="485" cy="760" r="6" class="bubble"/><text x="485" y="763" class="opt">B</text><circle cx="540" cy="760" r="6" class="bubble"/><text x="540" y="763" class="opt">C</text><circle cx="595" cy="760" r="6" class="bubble"/><text x="595" y="763" class="opt">D</text><text x="95" y="778" class="q">036</text><circle cx="430" cy="775" r="6" class="bubble"/><text x="430" y="778" class="opt">A</text><circle cx="485" cy="775" r="6" class="bubble"/><text x="485" y="778" class="opt">B</text><circle cx="540" cy="775" r="6" class="bubble"/><text x="540" y="778" class="opt">C</text><circle cx="595" cy="775" r="6" class="bubble"/><text x="595" y="778" class="opt">D</text><text x="95" y="793" class="q">037</text><circle cx="430" cy="790" r="6" class="bubble"/><text x="430" y="793" class="opt">A</text><circle cx="485" cy="790" r="6" class="bubble"/><text x="485" y="793" class="opt">B</text><circle cx="540" cy="790" r="6" class="bubble"/><text x="540" y="793" class="opt">C</text><circle cx="595" cy="790" r="6" class="bubble"/><text x="595" y="793" class="opt">D</text><text x="95" y="808" class="q">038</text><circle cx="430" cy="805" r="6" class="bubble"/><text x="430" y="808" class="opt">A</text><circle cx="485" cy="805" r="6" class="bubble"/><text x="485" y="808" class="opt">B</text><circle cx="540" cy="805" r="6" class="bubble"/><text x="540" y="808" class="opt">C</text><circle cx="595" cy="805" r="6" class="bubble"/><text x="595" y="808" class="opt">D</text><text x="95" y="823" class="q">039</text><circle cx="430" cy="820" r="6" class="bubble"/><text x="430" y="823" class="opt">A</text><circle cx="485" cy="820" r="6" class="bubble"/><text x="485" y="823" class="opt">B</text><circle cx="540" cy="820" r="6" class="bubble"/><text x="540" y="823" class="opt">C</text><circle cx="595" cy="820" r="6" class="bubble"/><text x="595" y="823" class="opt">D</text><text x="95" y="838" class="q">040</text><circle cx="430" cy="835" r="6" class="bubble"/><text x="430" y="838" class="opt">A</text><circle cx="485" cy="835" r="6" class="bubble"/><text x="485" y="838" class="opt">B</text><circle cx="540" cy="835" r="6" class="bubble"/><text x="540" y="838" class="opt">C</text><circle cx="595" cy="835" r="6" class="bubble"/><text x="595" y="838" class="opt">D</text><text x="95" y="853" class="q">041</text><circle cx="430" cy="850" r="6" class="bubble"/><text x="430" y="853" class="opt">A</text><circle cx="485" cy="850" r="6" class="bubble"/><text x="485" y="853" class="opt">B</text><circle cx="540" cy="850" r="6" class="bubble"/><text x="540" y="853" class="opt">C</text><circle cx="595" cy="850" r="6" class="bubble"/><text x="595" y="853" class="opt">D</text><text x="95" y="868" class="q">042</text><circle cx="430" cy="865" r="6" class="bubble"/><text x="430" y="868" class="opt">A</text><circle cx="485" cy="865" r="6" class="bubble"/><text x="485" y="868" class="opt">B</text><circle cx="540" cy="865" r="6" class="bubble"/><text x="540" y="868" class="opt">C</text><circle cx="595" cy="865" r="6" class="bubble"/><text x="595" y="868" class="opt">D</text><text x="95" y="883" class="q">043</text><circle cx="430" cy="880" r="6" class="bubble"/><text x="430" y="883" class="opt">A</text><circle cx="485" cy="880" r="6" class="bubble"/><text x="485" y="883" class="opt">B</text><circle cx="540" cy="880" r="6" class="bubble"/><text x="540" y="883" class="opt">C</text><circle cx="595" cy="880" r="6" class="bubble"/><text x="595" y="883" class="opt">D</text><text x="95" y="898" class="q">044</text><circle cx="430" cy="895" r="6" class="bubble"/><text x="430" y="898" class="opt">A</text><circle cx="485" cy="895" r="6" class="bubble"/><text x="485" y="898" class="opt">B</text><circle cx="540" cy="895" r="6" class="bubble"/><text x="540" y="898" class="opt">C</text><circle cx="595" cy="895" r="6" class="bubble"/><text x="595" y="898" class="opt">D</text><text x="95" y="913" class="q">045</text><circle cx="430" cy="910" r="6" class="bubble"/><text x="430" y="913" class="opt">A</text><circle cx="485" cy="910" r="6" class="bubble"/><text x="485" y="913" class="opt">B</text><circle cx="540" cy="910" r="6" class="bubble"/><text x="540" y="913" class="opt">C</text><circle cx="595" cy="910" r="6" class="bubble"/><text x="595" y="913" class="opt">D</text><text x="95" y="928" class="q">046</text><circle cx="430" cy="925" r="6" class="bubble"/><text x="430" y="928" class="opt">A</text><circle cx="485" cy="925" r="6" class="bubble"/><text x="485" y="928" class="opt">B</text><circle cx="540" cy="925" r="6" class="bubble"/><text x="540" y="928" class="opt">C</text><circle cx="595" cy="925" r="6" class="bubble"/><text x="595" y="928" class="opt">D</text><text x="95" y="943" class="q">047</text><circle cx="430" cy="940" r="6" class="bubble"/><text x="430" y="943" class="opt">A</text><circle cx="485" cy="940" r="6" class="bubble"/><text x="485" y="943" class="opt">B</text><circle cx="540" cy="940" r="6" class="bubble"/><text x="540" y="943" class="opt">C</text><circle cx="595" cy="940" r="6" class="bubble"/><text x="595" y="943" class="opt">D</text><text x="95" y="958" class="q">048</text><circle cx="430" cy="955" r="6" class="bubble"/><text x="430" y="958" class="opt">A</text><circle cx="485" cy="955" r="6" class="bubble"/><text x="485" y="958" class="opt">B</text><circle cx="540" cy="955" r="6" class="bubble"/><text x="540" y="958" class="opt">C</text><circle cx="595" cy="955" r="6" class="bubble"/><text x="595" y="958" class="opt">D</text><text x="95" y="973" class="q">049</text><circle cx="430" cy="970" r="6" class="bubble"/><text x="430" y="973" class="opt">A</text><circle cx="485" cy="970" r="6" class="bubble"/><text x="485" y="973" class="opt">B</text><circle cx="540" cy="970" r="6" class="bubble"/><text x="540" y="973" class="opt">C</text><circle cx="595" cy="970" r="6" class="bubble"/><text x="595" y="973" class="opt">D</text><text x="95" y="988" class="q">050</text><circle cx="430" cy="985" r="6" class="bubble"/><text x="430" y="988" class="opt">A</text><circle cx="485" cy="985" r="6" class="bubble"/><text x="485" y="988" class="opt">B</text><circle cx="540" cy="985" r="6" class="bubble"/><text x="540" y="988" class="opt">C</text><circle cx="595" cy="985" r="6" class="bubble"/><text x="595" y="988" class="opt">D</text><text x="60" y="1070" font-family="Arial" font-size="9">Use one clearly filled bubble per question. Erasures/ambiguous marks may require manual correction.</text><style>.q{font:700 10px Arial;fill:#111}.bubble{fill:#fff;stroke:#111;stroke-width:1.5}.opt{font:7px Arial;text-anchor:middle;fill:#777}</style></svg>